<svg width="24" height="24" viewBox="0 0 24 24" fill="none" xmlns="http://www.w3.org/2000/svg">
<path d="M3 3.50001C3 3.22386 2.77614 3.00001 2.5 3.00001C2.22386 3.00001 2 3.22386 2 3.50001H2.5H3ZM2.5 8.50001H2C2 8.77615 2.22386 9.00001 2.5 9.00001V8.50001ZM7.5 9.00001C7.77614 9.00001 8 8.77615 8 8.50001C8 8.22386 7.77614 8.00001 7.5 8.00001V8.50001V9.00001ZM3 11.5C3 11.2239 2.77614 11 2.5 11C2.22386 11 2 11.2239 2 11.5H2.5H3ZM4.83102 17.5436L5.20152 17.2078H5.20152L4.83102 17.5436ZM10.6166 20.4565L10.6657 19.959V19.959L10.6166 20.4565ZM16.8598 18.73L17.1575 19.1317V19.1317L16.8598 18.73ZM14.1162 2.88864L14.2615 2.41023V2.41023L14.1162 2.88864ZM12 6.50001C12 6.22386 11.7762 6.00001 11.5 6.00001C11.2239 6.00001 11 6.22386 11 6.50001H11.5H12ZM11.5 11.5H11C11 11.6894 11.107 11.8625 11.2764 11.9472L11.5 11.5ZM15.2764 13.9472C15.5234 14.0707 15.8237 13.9706 15.9472 13.7236C16.0707 13.4766 15.9706 13.1763 15.7236 13.0528L15.5 13.5L15.2764 13.9472ZM2.5 3.50001H2V8.50001H2.5H3V3.50001H2.5ZM2.5 8.50001V9.00001H7.5V8.50001V8.00001H2.5V8.50001ZM2.5 11.5H2C2 13.8581 2.87702 16.132 4.46052 17.8793L4.83102 17.5436L5.20152 17.2078C3.7847 15.6444 3 13.6099 3 11.5H2.5ZM4.83102 17.5436L4.46052 17.8793C6.04401 19.6267 8.22078 20.7227 10.5675 20.9541L10.6166 20.4565L10.6657 19.959C8.56596 19.7519 6.61833 18.7712 5.20152 17.2078L4.83102 17.5436ZM10.6166 20.4565L10.5675 20.9541C12.9142 21.1856 15.2632 20.536 17.1575 19.1317L16.8598 18.73L16.562 18.3283C14.8671 19.5848 12.7654 20.1661 10.6657 19.959L10.6166 20.4565ZM16.8598 18.73L17.1575 19.1317C19.0519 17.7273 20.3562 15.6687 20.8169 13.356L20.3266 13.2583L19.8362 13.1606C19.424 15.2298 18.257 17.0718 16.562 18.3283L16.8598 18.73ZM20.3266 13.2583L20.8169 13.356C21.2776 11.0433 20.8617 8.64193 19.6501 6.61888L19.2212 6.87578L18.7922 7.13269C19.8763 8.94278 20.2484 11.0914 19.8362 13.1606L20.3266 13.2583ZM19.2212 6.87578L19.6501 6.61888C18.4385 4.59583 16.5178 3.09571 14.2615 2.41023L14.1162 2.88864L13.9708 3.36705C15.9896 3.98037 17.7082 5.32259 18.7922 7.13269L19.2212 6.87578ZM14.1162 2.88864L14.2615 2.41023C12.0052 1.72476 9.57465 1.90294 7.44244 2.91012L7.65599 3.36222L7.86955 3.81432C9.77732 2.91316 11.9521 2.75373 13.9708 3.36705L14.1162 2.88864ZM7.65599 3.36222L7.44244 2.91012C5.31292 3.91603 3.09864 6.18469 2.05279 8.2764L2.5 8.50001L2.94721 8.72361C3.90136 6.81532 5.95909 4.71675 7.86955 3.81432L7.65599 3.36222ZM11.5 6.50001H11V11.5H11.5H12V6.50001H11.5ZM11.5 11.5L11.2764 11.9472L15.2764 13.9472L15.5 13.5L15.7236 13.0528L11.7236 11.0528L11.5 11.5Z" fill="white"/>
</svg>
