<svg width="16" height="16" viewBox="0 0 16 16" fill="none" xmlns="http://www.w3.org/2000/svg">
<path d="M2.5 3.49994V5.49994H4.5" stroke="white" stroke-linecap="round" stroke-linejoin="round"/>
<path d="M2.49976 8.5C2.6264 9.80784 3.21728 11.0572 4.16507 11.9673C5.11286 12.8773 6.35514 13.418 7.66705 13.4914C8.97896 13.5648 10.2738 13.1661 11.3172 12.3675C12.3606 11.5689 13.0836 10.4231 13.3554 9.1376C13.6272 7.85205 13.4298 6.51168 12.7988 5.3591C12.1679 4.20653 11.1452 3.3179 9.91586 2.85407C8.68649 2.39024 7.33168 2.38186 6.09667 2.83045C4.86165 3.27903 3.47415 4.6409 2.49976 5.5" stroke="white" stroke-linecap="round"/>
<path d="M7.52539 4.5L7.5 8.5L10.5254 10.5" stroke="white" stroke-linecap="round" stroke-linejoin="round"/>
</svg>
