<svg width="16" height="16" viewBox="0 0 16 16" fill="none" xmlns="http://www.w3.org/2000/svg">
<path d="M14.0307 10.4256C13.6296 11.4229 12.9874 12.3051 12.1617 12.9933C11.3359 13.6815 10.3524 14.1542 9.29915 14.369C8.2459 14.5838 7.15582 14.534 6.12652 14.2242C5.09722 13.9143 4.16083 13.354 3.40121 12.5934C2.64159 11.8329 2.08245 10.8958 1.77385 9.86612C1.46526 8.83644 1.41685 7.74629 1.63296 6.69331C1.84907 5.64033 2.32295 4.65737 3.01216 3.83248C3.70138 3.00758 4.58441 2.36648 5.5822 1.9666" stroke="white"/>
<mask id="path-2-inside-1_480_2690" fill="white">
<path d="M15.0002 8.00009C15.0002 7.08084 14.8192 6.17059 14.4674 5.32131C14.1156 4.47203 13.6 3.70035 12.95 3.05034C12.3 2.40033 11.5283 1.88472 10.679 1.53293C9.82975 1.18115 8.9195 1.00009 8.00024 1.00009L8.00024 8.00009H15.0002Z"/>
</mask>
<path d="M15.0002 8.00009C15.0002 7.08084 14.8192 6.17059 14.4674 5.32131C14.1156 4.47203 13.6 3.70035 12.95 3.05034C12.3 2.40033 11.5283 1.88472 10.679 1.53293C9.82975 1.18115 8.9195 1.00009 8.00024 1.00009L8.00024 8.00009H15.0002Z" stroke="white" stroke-width="2" stroke-linejoin="round" mask="url(#path-2-inside-1_480_2690)"/>
</svg>
