<svg width="24" height="24" viewBox="0 0 24 24" fill="none" xmlns="http://www.w3.org/2000/svg">
<path d="M12 5.5C15.3159 5.5 17.6926 7.15325 19.2588 8.83984C20.0417 9.683 20.6149 10.5282 20.9922 11.1621C21.1805 11.4785 21.3193 11.7411 21.4102 11.9229C21.4239 11.9503 21.4357 11.9763 21.4473 12C21.4357 12.0237 21.4239 12.0497 21.4102 12.0771C21.3193 12.2589 21.1805 12.5215 20.9922 12.8379C20.6149 13.4718 20.0417 14.317 19.2588 15.1602C17.6926 16.8467 15.3159 18.5 12 18.5C8.68415 18.5 6.30737 16.8467 4.74121 15.1602C3.95828 14.317 3.38512 13.4718 3.00781 12.8379C2.81946 12.5215 2.68072 12.2589 2.58984 12.0771C2.57603 12.0495 2.56335 12.0238 2.55176 12C2.56335 11.9762 2.57603 11.9505 2.58984 11.9229C2.68072 11.7411 2.81946 11.4785 3.00781 11.1621C3.38512 10.5282 3.95828 9.683 4.74121 8.83984C6.30737 7.15325 8.68415 5.5 12 5.5Z" stroke="white" stroke-linecap="round" stroke-linejoin="round"/>
<path d="M12 9.5C13.3807 9.5 14.5 10.6193 14.5 12C14.5 13.3807 13.3807 14.5 12 14.5C10.6193 14.5 9.5 13.3807 9.5 12C9.5 10.6193 10.6193 9.5 12 9.5Z" stroke="white" stroke-linecap="round" stroke-linejoin="round"/>
</svg>
