<svg width="32" height="32" viewBox="0 0 32 32" fill="none" xmlns="http://www.w3.org/2000/svg">
<path d="M16 7.5C20.7316 7.5 24.1121 9.66865 26.3232 11.8555C27.4295 12.9496 28.2394 14.0444 28.7715 14.8652C29.0373 15.2753 29.2328 15.6164 29.3613 15.8525C29.3911 15.9072 29.4159 15.957 29.4385 16C29.4159 16.043 29.3911 16.0928 29.3613 16.1475C29.2328 16.3836 29.0373 16.7247 28.7715 17.1348C28.2394 17.9556 27.4295 19.0504 26.3232 20.1445C24.1121 22.3314 20.7316 24.5 16 24.5C11.2684 24.5 7.88791 22.3314 5.67676 20.1445C4.57046 19.0504 3.76056 17.9556 3.22852 17.1348C2.96275 16.7247 2.76724 16.3836 2.63867 16.1475C2.60881 16.0926 2.58315 16.0431 2.56055 16C2.58315 15.9569 2.60881 15.9074 2.63867 15.8525C2.76724 15.6164 2.96275 15.2753 3.22852 14.8652C3.76056 14.0444 4.57046 12.9496 5.67676 11.8555C7.88791 9.66865 11.2684 7.5 16 7.5Z" stroke="white" stroke-linecap="round"/>
<path d="M16 12.5C17.933 12.5 19.5 14.067 19.5 16C19.5 17.933 17.933 19.5 16 19.5C14.067 19.5 12.5 17.933 12.5 16C12.5 14.067 14.067 12.5 16 12.5Z" stroke="white" stroke-linecap="round" stroke-linejoin="round"/>
</svg>
