<svg width="16" height="16" viewBox="0 0 16 16" fill="none" xmlns="http://www.w3.org/2000/svg">
<path d="M8 3.5C10.262 3.5 11.8878 4.65009 12.9678 5.83691C13.5072 6.42973 13.9026 7.02425 14.1631 7.4707C14.2912 7.69038 14.3859 7.87304 14.4482 8C14.3859 8.12696 14.2912 8.30962 14.1631 8.5293C13.9026 8.97575 13.5072 9.57027 12.9678 10.1631C11.8878 11.3499 10.262 12.5 8 12.5C5.73798 12.5 4.11224 11.3499 3.03223 10.1631C2.49281 9.57027 2.09736 8.97575 1.83691 8.5293C1.70864 8.30939 1.61313 8.12698 1.55078 8C1.61313 7.87302 1.70864 7.69061 1.83691 7.4707C2.09736 7.02425 2.49281 6.42973 3.03223 5.83691C4.11224 4.65009 5.73798 3.5 8 3.5Z" stroke="white" stroke-linecap="round" stroke-linejoin="round"/>
<path d="M8 6.5C8.82843 6.5 9.5 7.17157 9.5 8C9.5 8.82843 8.82843 9.5 8 9.5C7.17157 9.5 6.5 8.82843 6.5 8C6.5 7.17157 7.17157 6.5 8 6.5Z" stroke="white" stroke-linecap="round" stroke-linejoin="round"/>
</svg>
