<svg width="24" height="24" viewBox="0 0 24 24" fill="none" xmlns="http://www.w3.org/2000/svg">
<path d="M4.5 17.5C4.89397 17.5 5.28407 17.4224 5.64805 17.2716C6.01203 17.1209 6.34274 16.8999 6.62132 16.6213C6.8999 16.3427 7.12087 16.012 7.27164 15.6481C7.4224 15.2841 7.5 14.894 7.5 14.5C7.5 14.106 7.4224 13.7159 7.27164 13.3519C7.12087 12.988 6.8999 12.6573 6.62132 12.3787C6.34274 12.1001 6.01203 11.8791 5.64805 11.7284C5.28407 11.5776 4.89397 11.5 4.5 11.5C3.70435 11.5 2.94129 11.8161 2.37868 12.3787C1.81607 12.9413 1.5 13.7044 1.5 14.5C1.5 15.2956 1.81607 16.0587 2.37868 16.6213C2.94129 17.1839 3.70435 17.5 4.5 17.5Z" stroke="white" stroke-linecap="round" stroke-linejoin="round"/>
<path d="M8.5 18.5L7 17" stroke="white" stroke-linecap="round" stroke-linejoin="round"/>
<path d="M3.5 22.5H17.5C19.1569 22.5 20.5 21.1569 20.5 19.5V7.74264C20.5 6.94699 20.1839 6.18393 19.6213 5.62132L16.3787 2.37868C15.8161 1.81607 15.053 1.5 14.2574 1.5H6.5C4.84315 1.5 3.5 2.84315 3.5 4.5V7.5" stroke="white" stroke-linecap="round"/>
<path d="M14.5 2V7.5H20" stroke="white" stroke-linecap="round" stroke-linejoin="round"/>
</svg>
