<svg width="32" height="32" viewBox="0 0 32 32" fill="none" xmlns="http://www.w3.org/2000/svg">
<path d="M7 25.5C8.19347 25.5 9.33807 25.0259 10.182 24.182C11.0259 23.3381 11.5 22.1935 11.5 21C11.5 19.8065 11.0259 18.6619 10.182 17.818C9.33807 16.9741 8.19347 16.5 7 16.5C5.80653 16.5 4.66193 16.9741 3.81802 17.818C2.97411 18.6619 2.5 19.8065 2.5 21C2.5 22.1935 2.97411 23.3381 3.81802 24.182C4.66193 25.0259 5.80653 25.5 7 25.5Z" stroke="white" stroke-linecap="round" stroke-linejoin="round"/>
<path d="M12.5 27.5L10 24.5" stroke="white" stroke-linecap="round" stroke-linejoin="round"/>
<path d="M4.5 30.5H23.5C25.7091 30.5 27.5 28.7091 27.5 26.5V10.6569C27.5 9.59599 27.0786 8.57857 26.3284 7.82843L21.1716 2.67157C20.4214 1.92143 19.404 1.5 18.3431 1.5H8.5C6.29086 1.5 4.5 3.29086 4.5 5.5V12.5" stroke="white" stroke-linecap="round"/>
<path d="M19.5 2V9.5H27" stroke="white" stroke-linecap="round" stroke-linejoin="round"/>
</svg>
