<svg width="24" height="24" viewBox="0 0 24 24" fill="none" xmlns="http://www.w3.org/2000/svg">
<path d="M20.5 9.5V7.5C20.5 6.39543 19.6046 5.5 18.5 5.5H13.0355C12.3725 5.5 11.7366 5.23661 11.2678 4.76777L9.73223 3.23223C9.26339 2.76339 8.62751 2.5 7.96447 2.5H4C2.61929 2.5 1.5 3.61929 1.5 5V18C1.5 19.3807 2.61929 20.5 4 20.5H18.4724C19.3743 20.5 20.1646 19.8964 20.4019 19.0262L22.311 12.0262C22.658 10.754 21.7002 9.5 20.3815 9.5H9.73607C8.97852 9.5 8.286 9.928 7.94721 10.6056L6.5 13.5" stroke="white" stroke-linecap="round"/>
</svg>
