<svg width="32" height="32" viewBox="0 0 32 32" fill="none" xmlns="http://www.w3.org/2000/svg">
<path d="M26.5007 12V10.5C26.5007 8.84315 25.1575 7.5 23.5007 7.5H17.0889C16.0796 7.5 15.1195 7.06432 14.4548 6.30477L13.0465 4.69523C12.3819 3.93568 11.4218 3.5 10.4125 3.5H6.00067C4.06767 3.5 2.50067 5.067 2.50067 7V24C2.50067 25.933 4.06767 27.5 6.00067 27.5H24.4108C25.7469 27.5 26.922 26.6164 27.2929 25.3327L29.8933 16.3327C30.4476 14.4144 29.008 12.5 27.0112 12.5H13.1992C12.1455 12.5 11.1689 13.0529 10.6268 13.9565L8.50067 17.5" stroke="white" stroke-linecap="round"/>
</svg>
