<svg width="24" height="24" viewBox="0 0 24 24" fill="none" xmlns="http://www.w3.org/2000/svg">
<path d="M7.5 16.5L4.91421 13.9142C4.13316 13.1332 2.86684 13.1332 2.08579 13.9142L1.96382 14.0362C1.16367 14.8363 1.18614 16.1404 2.0134 16.9125L5.98292 20.6174C7.27911 21.8272 8.9861 22.5 10.7591 22.5H14.5C18.9183 22.5 22.5 18.9183 22.5 14.5V8C22.5 6.89543 21.6046 6 20.5 6C19.3954 6 18.5 6.89543 18.5 8V11.5" stroke="white" stroke-linecap="round"/>
<path d="M6.5 15.5V5.5C6.5 4.39543 7.39543 3.5 8.5 3.5C9.60457 3.5 10.5 4.39543 10.5 5.5V10.5" stroke="white" stroke-linecap="round"/>
<path d="M10.5 10.5V3.5C10.5 2.39543 11.3954 1.5 12.5 1.5C13.6046 1.5 14.5 2.39543 14.5 3.5V9.5" stroke="white" stroke-linecap="round"/>
<path d="M14.5 9.5V5.5C14.5 4.39543 15.3954 3.5 16.5 3.5C17.6046 3.5 18.5 4.39543 18.5 5.5V10.5" stroke="white" stroke-linecap="round"/>
</svg>
