<svg width="16" height="16" viewBox="0 0 16 16" fill="none" xmlns="http://www.w3.org/2000/svg">
<path d="M5.5 11.5L3.5 9.5C2.94772 8.94772 2.05228 8.94772 1.5 9.5C0.947715 10.0523 0.947715 10.9477 1.5 11.5L3.44975 13.4497C4.7625 14.7625 6.54298 15.5 8.39949 15.5H9.5C11.7091 15.5 13.5 13.7091 13.5 11.5V5.5C13.5 4.94771 13.0523 4.5 12.5 4.5C11.9477 4.5 11.5 4.94772 11.5 5.5V8.5" stroke="white" stroke-linecap="round"/>
<path d="M7.5 8.5V2.5C7.5 1.94772 7.94772 1.5 8.5 1.5C9.05228 1.5 9.5 1.94772 9.5 2.5V6" stroke="white" stroke-linecap="round"/>
<path d="M5.5 11.5V3.5C5.5 2.94772 5.94772 2.5 6.5 2.5C7.05228 2.5 7.5 2.94772 7.5 3.5V7" stroke="white" stroke-linecap="round"/>
<path d="M9.5 7.5V3.5C9.5 2.94772 9.94772 2.5 10.5 2.5C11.0523 2.5 11.5 2.94772 11.5 3.5V8.5" stroke="white" stroke-linecap="round"/>
</svg>
