<svg width="32" height="32" viewBox="0 0 32 32" fill="none" xmlns="http://www.w3.org/2000/svg">
<path d="M11.5 21.5L7.5 17.5C6.39543 16.3954 4.60457 16.3954 3.5 17.5C2.39543 18.6046 2.39543 20.3954 3.5 21.5L9.44975 27.4497C10.7625 28.7625 12.543 29.5 14.3995 29.5H20.5C26.0228 29.5 30.5 25.0228 30.5 19.5V10C30.5 8.61929 29.3807 7.5 28 7.5C26.6193 7.5 25.5 8.61929 25.5 10V15" stroke="white" stroke-linecap="round"/>
<path d="M10.5 20.5V7C10.5 5.61929 11.6193 4.5 13 4.5C14.3807 4.5 15.5 5.61929 15.5 7V14.5" stroke="white" stroke-linecap="round"/>
<path d="M15.5 14.5V5C15.5 3.61929 16.6193 2.5 18 2.5C19.3807 2.5 20.5 3.61929 20.5 5V12.5" stroke="white" stroke-linecap="round"/>
<path d="M20.5 12.5V7C20.5 5.61929 21.6193 4.5 23 4.5C24.3807 4.5 25.5 5.61929 25.5 7V14.5" stroke="white" stroke-linecap="round"/>
</svg>
