<svg width="32" height="32" viewBox="0 0 32 32" fill="none" xmlns="http://www.w3.org/2000/svg">
<path d="M4.99023 4.50001C4.99023 4.22386 4.76638 4.00001 4.49023 4.00001C4.21409 4.00001 3.99023 4.22386 3.99023 4.50001H4.49023H4.99023ZM4.49023 11.5H3.99023C3.99023 11.7761 4.21409 12 4.49023 12V11.5ZM11.4902 12C11.7664 12 11.9902 11.7761 11.9902 11.5C11.9902 11.2239 11.7664 11 11.4902 11V11.5V12ZM3.99956 16.4861C3.98837 16.2102 3.75563 15.9956 3.47972 16.0067C3.2038 16.0179 2.98919 16.2507 3.00038 16.5266L3.49997 16.5063L3.99956 16.4861ZM23.5876 25.9258L23.8916 26.3228V26.3228L23.5876 25.9258ZM28.2657 18.3558L27.7747 18.2615V18.2615L28.2657 18.3558ZM26.7221 9.59182L26.2928 9.84815V9.84815L26.7221 9.59182ZM10.856 4.60285L11.0614 5.05874V5.05874L10.856 4.60285ZM16 9.55892C16 9.28277 15.7761 9.05892 15.5 9.05892C15.2238 9.05892 15 9.28277 15 9.55892H15.5H16ZM15.5 16.5063H15C15 16.6806 15.0907 16.8423 15.2394 16.9331L15.5 16.5063ZM20.2394 19.9857C20.4751 20.1296 20.7828 20.0551 20.9267 19.8195C21.0706 19.5838 20.9962 19.2761 20.7605 19.1322L20.5 19.5589L20.2394 19.9857ZM4.49023 4.50001H3.99023V11.5H4.49023H4.99023V4.50001H4.49023ZM4.49023 11.5V12H11.4902V11.5V11H4.49023V11.5ZM3.49997 16.5063L3.00038 16.5266C3.12957 19.7133 4.42574 22.7414 6.64228 25.0347L7.0018 24.6872L7.36132 24.3397C5.31527 22.2229 4.11881 19.4277 3.99956 16.4861L3.49997 16.5063ZM7.0018 24.6872L6.64228 25.0347C8.85883 27.328 11.8411 28.7264 15.0216 28.9639L15.0588 28.4653L15.0961 27.9667C12.1602 27.7474 9.40736 26.4566 7.36132 24.3397L7.0018 24.6872ZM15.0588 28.4653L15.0216 28.9639C18.2021 29.2014 21.359 28.2615 23.8916 26.3228L23.5876 25.9258L23.2837 25.5288C20.946 27.3183 18.0319 28.1859 15.0961 27.9667L15.0588 28.4653ZM23.5876 25.9258L23.8916 26.3228C26.4241 24.3842 28.1557 21.5822 28.7568 18.45L28.2657 18.3558L27.7747 18.2615C27.2198 21.1528 25.6215 23.7393 23.2837 25.5288L23.5876 25.9258ZM28.2657 18.3558L28.7568 18.45C29.3578 15.3178 28.7865 12.0739 27.1514 9.33549L26.7221 9.59182L26.2928 9.84815C27.8021 12.3759 28.3295 15.3703 27.7747 18.2615L28.2657 18.3558ZM26.7221 9.59182L27.1514 9.33549C25.5164 6.5971 22.9317 4.55533 19.8892 3.59864L19.7392 4.07561L19.5892 4.55259C22.3977 5.43569 24.7836 7.3204 26.2928 9.84815L26.7221 9.59182ZM19.7392 4.07561L19.8892 3.59864C16.8467 2.64195 13.5586 2.8371 10.6507 4.14697L10.856 4.60285L11.0614 5.05874C13.7457 3.84963 16.7808 3.66949 19.5892 4.55259L19.7392 4.07561ZM10.856 4.60285L10.6507 4.14697C9.15706 4.81974 7.88339 5.98084 6.80433 7.2645C5.72339 8.5504 4.81447 9.98779 4.06149 11.2428L4.49023 11.5L4.91898 11.7573C5.666 10.5122 6.54189 9.13078 7.5698 7.90797C8.59959 6.68293 9.75881 5.64546 11.0614 5.05874L10.856 4.60285ZM15.5 9.55892H15V16.5063H15.5H16V9.55892H15.5ZM15.5 16.5063L15.2394 16.9331L20.2394 19.9857L20.5 19.5589L20.7605 19.1322L15.7605 16.0796L15.5 16.5063Z" fill="white"/>
</svg>
