<svg width="16" height="16" viewBox="0 0 16 16" fill="none" xmlns="http://www.w3.org/2000/svg">
<path d="M2.5 3.49997V5.49997H4.5" stroke="white" stroke-linecap="round" stroke-linejoin="round"/>
<path d="M2.49979 8.5C2.62644 9.80784 3.21732 11.0572 4.16511 11.9673C5.1129 12.8773 6.35518 13.418 7.66709 13.4914C8.97899 13.5648 10.2738 13.1661 11.3172 12.3675C12.3607 11.5689 13.0837 10.4231 13.3555 9.1376C13.6272 7.85205 13.4298 6.51168 12.7989 5.3591C12.168 4.20653 11.1453 3.3179 9.9159 2.85407C8.68652 2.39024 7.33172 2.38186 6.0967 2.83045C4.86169 3.27903 3.47419 4.6409 2.49979 5.5" stroke="white" stroke-linecap="round"/>
<path d="M7.52539 4.5L7.5 8.5L10.5254 10.5" stroke="white" stroke-linecap="round" stroke-linejoin="round"/>
</svg>
