<svg width="32" height="32" viewBox="0 0 32 32" fill="none" xmlns="http://www.w3.org/2000/svg">
<rect x="6.5" y="3.5" width="22" height="22" rx="3.5" stroke="white"/>
<path d="M13 7.5C14.3807 7.5 15.5 8.61929 15.5 10C15.5 11.3807 14.3807 12.5 13 12.5C11.6193 12.5 10.5 11.3807 10.5 10C10.5 8.61929 11.6193 7.5 13 7.5Z" stroke="white" stroke-linecap="round" stroke-linejoin="round"/>
<path d="M10.5 25.5L21.5858 14.4142C22.3668 13.6332 23.6332 13.6332 24.4142 14.4142L28.5 18.5" stroke="white"/>
<path d="M25.5 25.5C25.5 27.1569 24.1569 28.5 22.5 28.5H7C5.067 28.5 3.5 26.933 3.5 25V9.5C3.5 7.84315 4.84315 6.5 6.5 6.5" stroke="white" stroke-linecap="round"/>
</svg>
