<svg width="24" height="24" viewBox="0 0 24 24" fill="none" xmlns="http://www.w3.org/2000/svg">
<rect x="5.5" y="2.5" width="16" height="16" rx="2.5" stroke="white"/>
<path d="M10.5 5.5C11.6046 5.5 12.5 6.39543 12.5 7.5C12.5 8.60457 11.6046 9.5 10.5 9.5C9.39543 9.5 8.5 8.60457 8.5 7.5C8.5 6.39543 9.39543 5.5 10.5 5.5Z" stroke="white" stroke-linecap="round" stroke-linejoin="round"/>
<path d="M8.5 18.5L16.5858 10.4142C17.3668 9.63316 18.6332 9.63316 19.4142 10.4142L21.5 12.5" stroke="white"/>
<path d="M5.5 5.5H5C3.61929 5.5 2.5 6.61929 2.5 8V19C2.5 20.3807 3.61929 21.5 5 21.5H16C17.3807 21.5 18.5 20.3807 18.5 19V18.5" stroke="white" stroke-linecap="round"/>
</svg>
