<svg width="24" height="24" viewBox="0 0 24 24" fill="none" xmlns="http://www.w3.org/2000/svg">
<path d="M22.0124 15.1626C21.4687 16.8838 20.4905 18.4358 19.1722 19.6688C17.8538 20.9017 16.2399 21.774 14.4862 22.2014C12.7325 22.6288 10.8982 22.5969 9.16042 22.1087C7.42264 21.6206 5.84004 20.6927 4.5654 19.4146C3.29076 18.1366 2.36712 16.5515 1.88365 14.8124C1.40018 13.0733 1.3732 11.2389 1.80532 9.48635C2.23744 7.73379 3.11406 6.12223 4.35056 4.80722C5.58707 3.49221 7.14169 2.51817 8.86437 1.97913" stroke="white" stroke-linecap="round"/>
<mask id="path-2-inside-1_505_486" fill="white">
<path d="M22 12C22.5523 12 23.0047 11.5514 22.9546 11.0014C22.8541 9.89918 22.5877 8.81651 22.1627 7.79048C21.6099 6.4559 20.7996 5.24327 19.7782 4.22183C18.7567 3.20038 17.5441 2.39013 16.2095 1.83732C15.1835 1.41233 14.1008 1.1459 12.9986 1.04542C12.4486 0.995284 12 1.44772 12 2V11C12 11.5523 12.4477 12 13 12H22Z"/>
</mask>
<path d="M22 12C22.5523 12 23.0047 11.5514 22.9546 11.0014C22.8541 9.89918 22.5877 8.81651 22.1627 7.79048C21.6099 6.4559 20.7996 5.24327 19.7782 4.22183C18.7567 3.20038 17.5441 2.39013 16.2095 1.83732C15.1835 1.41233 14.1008 1.1459 12.9986 1.04542C12.4486 0.995284 12 1.44772 12 2V11C12 11.5523 12.4477 12 13 12H22Z" stroke="white" stroke-width="2" stroke-linejoin="round" mask="url(#path-2-inside-1_505_486)"/>
</svg>
