<svg width="16" height="16" viewBox="0 0 16 16" fill="none" xmlns="http://www.w3.org/2000/svg">
<path d="M14.0308 10.4256C13.6297 11.4229 12.9875 12.3051 12.1618 12.9933C11.336 13.6815 10.3525 14.1542 9.29924 14.369C8.24599 14.5838 7.1559 14.534 6.1266 14.2242C5.0973 13.9143 4.16092 13.354 3.40129 12.5934C2.64167 11.8329 2.08253 10.8958 1.77394 9.86612C1.46535 8.83644 1.41693 7.74629 1.63304 6.69331C1.84915 5.64033 2.32303 4.65737 3.01224 3.83248C3.70146 3.00758 4.5845 2.36648 5.58228 1.9666" stroke="white"/>
<mask id="path-2-inside-1_505_487" fill="white">
<path d="M15.0003 8.00009C15.0003 7.08084 14.8193 6.17059 14.4675 5.32131C14.1157 4.47203 13.6001 3.70035 12.9501 3.05034C12.3001 2.40033 11.5284 1.88472 10.6791 1.53293C9.82983 1.18115 8.91958 1.00009 8.00033 1.00009L8.00033 8.00009H15.0003Z"/>
</mask>
<path d="M15.0003 8.00009C15.0003 7.08084 14.8193 6.17059 14.4675 5.32131C14.1157 4.47203 13.6001 3.70035 12.9501 3.05034C12.3001 2.40033 11.5284 1.88472 10.6791 1.53293C9.82983 1.18115 8.91958 1.00009 8.00033 1.00009L8.00033 8.00009H15.0003Z" stroke="white" stroke-width="2" stroke-linejoin="round" mask="url(#path-2-inside-1_505_487)"/>
</svg>
