<svg width="32" height="32" viewBox="0 0 32 32" fill="none" xmlns="http://www.w3.org/2000/svg">
<path d="M28.9123 19.9387C28.2326 22.1669 26.9879 24.1813 25.2992 25.7861C23.6105 27.3908 21.5352 28.5313 19.2753 29.0965C17.0153 29.6617 14.6475 29.6325 12.4022 29.0118C10.1568 28.391 8.11035 27.1997 6.46171 25.5538C4.81308 23.9079 3.6184 21.8634 2.99386 19.6191C2.36932 17.3748 2.33617 15.0071 2.89763 12.7462C3.4591 10.4853 4.59606 8.40816 6.19797 6.71677C7.79989 5.02537 9.81222 3.77729 12.0393 3.09388" stroke="white" stroke-linecap="round"/>
<mask id="path-2-inside-1_506_9142" fill="white">
<path d="M27.9997 15.9999C29.1042 15.9999 30.0143 15.1 29.8571 14.0067C29.6912 12.8537 29.3817 11.7233 28.934 10.6423C28.2304 8.94378 27.1992 7.40043 25.8992 6.10041C24.5991 4.80039 23.0558 3.76916 21.3572 3.06559C20.2763 2.61783 19.1459 2.30837 17.9929 2.14252C16.8996 1.98526 15.9997 2.89534 15.9997 3.99991L15.9997 13.9999C15.9997 15.1045 16.8951 15.9999 17.9997 15.9999H27.9997Z"/>
</mask>
<path d="M27.9997 15.9999C29.1042 15.9999 30.0143 15.1 29.8571 14.0067C29.6912 12.8537 29.3817 11.7233 28.934 10.6423C28.2304 8.94378 27.1992 7.40043 25.8992 6.10041C24.5991 4.80039 23.0558 3.76916 21.3572 3.06559C20.2763 2.61783 19.1459 2.30837 17.9929 2.14252C16.8996 1.98526 15.9997 2.89534 15.9997 3.99991L15.9997 13.9999C15.9997 15.1045 16.8951 15.9999 17.9997 15.9999H27.9997Z" stroke="white" stroke-width="2" stroke-linejoin="round" mask="url(#path-2-inside-1_506_9142)"/>
</svg>
