<svg width="32" height="32" viewBox="0 0 32 32" fill="none" xmlns="http://www.w3.org/2000/svg">
<path d="M16 2.5C23.4558 2.5 29.5 8.54416 29.5 16C29.5 23.4558 23.4558 29.5 16 29.5C8.54416 29.5 2.5 23.4558 2.5 16C2.5 8.54416 8.54416 2.5 16 2.5Z" stroke="white" stroke-linecap="round" stroke-linejoin="round"/>
<path d="M12.7578 10.5625C12.9167 10.4746 13.1106 10.48 13.2646 10.5762L21.2646 15.5762C21.4108 15.6675 21.5 15.8276 21.5 16C21.5 16.1724 21.4108 16.3325 21.2646 16.4238L13.2646 21.4238C13.1106 21.52 12.9167 21.5254 12.7578 21.4375C12.5988 21.3494 12.5 21.1818 12.5 21V11L12.5049 10.9326C12.526 10.7776 12.6187 10.6396 12.7578 10.5625Z" stroke="white" stroke-linejoin="round"/>
</svg>
