<svg width="24" height="24" viewBox="0 0 24 24" fill="none" xmlns="http://www.w3.org/2000/svg">
<path d="M12 1.5C17.799 1.5 22.5 6.20101 22.5 12C22.5 17.799 17.799 22.5 12 22.5C6.20101 22.5 1.5 17.799 1.5 12C1.5 6.20101 6.20101 1.5 12 1.5Z" stroke="white" stroke-linecap="round" stroke-linejoin="round"/>
<path d="M9.76367 7.55957C9.92625 7.47256 10.1239 7.4817 10.2773 7.58398L16.2773 11.584C16.4164 11.6767 16.5 11.8328 16.5 12C16.5 12.1672 16.4164 12.3233 16.2773 12.416L10.2773 16.416C10.1239 16.5183 9.92625 16.5274 9.76367 16.4404C9.60137 16.3533 9.5 16.1842 9.5 16V8L9.50488 7.93164C9.52653 7.77469 9.6217 7.63575 9.76367 7.55957Z" stroke="white" stroke-linejoin="round"/>
</svg>
