<svg width="32" height="32" viewBox="0 0 32 32" fill="none" xmlns="http://www.w3.org/2000/svg">
<path d="M5 17.5H27C28.933 17.5 30.5 19.067 30.5 21V27C30.5 28.933 28.933 30.5 27 30.5H5C3.067 30.5 1.5 28.933 1.5 27V21C1.5 19.067 3.067 17.5 5 17.5ZM5 1.5H27C28.933 1.5 30.5 3.067 30.5 5V11C30.5 12.933 28.933 14.5 27 14.5H5C3.067 14.5 1.5 12.933 1.5 11V5C1.5 3.067 3.067 1.5 5 1.5Z" stroke="white"/>
<circle cx="8" cy="24" r="1.5" stroke="white"/>
<circle cx="8" cy="8" r="1.5" stroke="white"/>
</svg>
