<svg width="24" height="24" viewBox="0 0 24 24" fill="none" xmlns="http://www.w3.org/2000/svg">
<path d="M6 16.5C6.82843 16.5 7.5 17.1716 7.5 18C7.5 18.8284 6.82843 19.5 6 19.5C5.17157 19.5 4.5 18.8284 4.5 18C4.5 17.1716 5.17157 16.5 6 16.5ZM6 4.5C6.82843 4.5 7.5 5.17157 7.5 6C7.5 6.82843 6.82843 7.5 6 7.5C5.17157 7.5 4.5 6.82843 4.5 6C4.5 5.17157 5.17157 4.5 6 4.5Z" stroke="white"/>
<path d="M4 13.5H20C21.3807 13.5 22.5 14.6193 22.5 16V20C22.5 21.3807 21.3807 22.5 20 22.5H4C2.61929 22.5 1.5 21.3807 1.5 20V16C1.5 14.6193 2.61929 13.5 4 13.5ZM4 1.5H20C21.3807 1.5 22.5 2.61929 22.5 4V8C22.5 9.38071 21.3807 10.5 20 10.5H4C2.61929 10.5 1.5 9.38071 1.5 8V4C1.5 2.61929 2.61929 1.5 4 1.5Z" stroke="white"/>
</svg>
