<svg width="16" height="16" viewBox="0 0 16 16" fill="none" xmlns="http://www.w3.org/2000/svg">
<g clip-path="url(#clip0_507_9180)">
<path d="M2 9.5H14C14.8284 9.5 15.5 10.1716 15.5 11V14C15.5 14.8284 14.8284 15.5 14 15.5H2C1.17157 15.5 0.5 14.8284 0.5 14V11C0.5 10.1716 1.17157 9.5 2 9.5ZM2 0.5H14C14.8284 0.5 15.5 1.17157 15.5 2V5C15.5 5.82843 14.8284 6.5 14 6.5H2C1.17157 6.5 0.5 5.82843 0.5 5V2C0.5 1.17157 1.17157 0.5 2 0.5Z" stroke="white"/>
<path d="M3.5 11.5C4.05228 11.5 4.5 11.9477 4.5 12.5C4.5 13.0523 4.05228 13.5 3.5 13.5C2.94772 13.5 2.5 13.0523 2.5 12.5C2.5 11.9477 2.94772 11.5 3.5 11.5ZM3.5 2.5C4.05228 2.5 4.5 2.94772 4.5 3.5C4.5 4.05228 4.05228 4.5 3.5 4.5C2.94772 4.5 2.5 4.05228 2.5 3.5C2.5 2.94772 2.94772 2.5 3.5 2.5Z" stroke="white"/>
</g>
<defs>
<clipPath id="clip0_507_9180">
<rect width="16" height="16" fill="white"/>
</clipPath>
</defs>
</svg>
