<svg width="32" height="32" viewBox="0 0 32 32" fill="none" xmlns="http://www.w3.org/2000/svg">
<g clip-path="url(#clip0_505_581)">
<path d="M3 1.5H14.6768C15.6049 1.50007 16.4951 1.86908 17.1514 2.52539L29.1514 14.5254C30.518 15.8922 30.518 18.1078 29.1514 19.4746L19.4746 29.1514C18.1078 30.518 15.8922 30.518 14.5254 29.1514L2.52539 17.1514C1.86908 16.4951 1.50007 15.6049 1.5 14.6768V3C1.5 2.17157 2.17157 1.5 3 1.5Z" stroke="white"/>
<path d="M8.5 6.5C9.60457 6.5 10.5 7.39543 10.5 8.5C10.5 9.60457 9.60457 10.5 8.5 10.5C7.39543 10.5 6.5 9.60457 6.5 8.5C6.5 7.39543 7.39543 6.5 8.5 6.5Z" stroke="white" stroke-linecap="round" stroke-linejoin="round"/>
</g>
<defs>
<clipPath id="clip0_505_581">
<rect width="32" height="32" fill="white"/>
</clipPath>
</defs>
</svg>
