<svg width="24" height="24" viewBox="0 0 24 24" fill="none" xmlns="http://www.w3.org/2000/svg">
<g clip-path="url(#clip0_507_9191)">
<path d="M2 1.5H11.2578C11.9207 1.50012 12.5567 1.76369 13.0254 2.23242L22.0254 11.2324C23.0014 12.2087 23.0014 13.7913 22.0254 14.7676L14.7676 22.0254C13.7913 23.0014 12.2087 23.0014 11.2324 22.0254L2.23242 13.0254C1.76369 12.5567 1.50012 11.9207 1.5 11.2578V2L1.50977 1.89941C1.55629 1.67145 1.75829 1.5 2 1.5Z" stroke="white"/>
<path d="M7 5.5C7.82843 5.5 8.5 6.17157 8.5 7C8.5 7.82843 7.82843 8.5 7 8.5C6.17157 8.5 5.5 7.82843 5.5 7C5.5 6.17157 6.17157 5.5 7 5.5Z" stroke="white" stroke-linecap="round" stroke-linejoin="round"/>
</g>
<defs>
<clipPath id="clip0_507_9191">
<rect width="24" height="24" fill="white"/>
</clipPath>
</defs>
</svg>
