<svg width="32" height="32" viewBox="0 0 32 32" fill="none" xmlns="http://www.w3.org/2000/svg">
<g clip-path="url(#clip0_505_8239)">
<path d="M2 5.5H11.5859C11.7185 5.50004 11.8457 5.55275 11.9395 5.64648L21.1719 14.8789C22.3431 16.0504 22.3431 17.9496 21.1719 19.1211L15.1211 25.1719C13.9496 26.3431 12.0504 26.3431 10.8789 25.1719L1.64648 15.9395C1.55275 15.8457 1.50004 15.7185 1.5 15.5859V6C1.5 5.72386 1.72386 5.5 2 5.5Z" stroke="white"/>
<path d="M21.0002 5.99998L29.8789 14.8787C31.0505 16.0502 31.0505 17.9497 29.8789 19.1213L23.5002 25.5" stroke="white" stroke-linecap="round"/>
<path d="M6.5 8.5C7.60457 8.5 8.5 9.39543 8.5 10.5C8.5 11.6046 7.60457 12.5 6.5 12.5C5.39543 12.5 4.5 11.6046 4.5 10.5C4.5 9.39543 5.39543 8.5 6.5 8.5Z" stroke="white" stroke-linecap="round" stroke-linejoin="round"/>
</g>
<defs>
<clipPath id="clip0_505_8239">
<rect width="32" height="32" fill="white"/>
</clipPath>
</defs>
</svg>
