<svg width="24" height="24" viewBox="0 0 24 24" fill="none" xmlns="http://www.w3.org/2000/svg">
<g clip-path="url(#clip0_507_9201)">
<path d="M2 4.5H8.90723C9.03908 4.50008 9.1652 4.55262 9.25879 4.64551H9.25977L15.5557 10.8994C16.734 12.0698 16.7379 13.975 15.5635 15.1494L12.1934 18.5186C11.0246 19.687 9.13062 19.69 7.95801 18.5254L1.64746 12.2578C1.55307 12.164 1.5001 12.0364 1.5 11.9033V5C1.5 4.72386 1.72386 4.5 2 4.5Z" stroke="white"/>
<path d="M15.9904 5L22.2303 11.2322C23.2076 12.2084 23.2081 13.7921 22.2313 14.7688L18.0002 19" stroke="white" stroke-linecap="round"/>
<path d="M6 7.5C6.82843 7.5 7.5 8.17157 7.5 9C7.5 9.82843 6.82843 10.5 6 10.5C5.17157 10.5 4.5 9.82843 4.5 9C4.5 8.17157 5.17157 7.5 6 7.5Z" stroke="white" stroke-linecap="round" stroke-linejoin="round"/>
</g>
<defs>
<clipPath id="clip0_507_9201">
<rect width="24" height="24" fill="white"/>
</clipPath>
</defs>
</svg>
